<?xml version="1.0" encoding="utf-8"?>
<!-- Generator: Adobe Illustrator 24.3.0, SVG Export Plug-In . SVG Version: 6.00 Build 0)  -->
<svg version="1.1" id="Layer_1" xmlns="http://www.w3.org/2000/svg" xmlns:xlink="http://www.w3.org/1999/xlink" x="0px" y="0px"
	 viewBox="0 0 1000 1000" style="enable-background:new 0 0 1000 1000;" xml:space="preserve">
<style type="text/css">
	.st0{fill:#30437D;}
	.st1{fill:#ADC959;}
</style>
<path class="st0" d="M224.82,552.49c16.98-36.65,40.21-69.7,60.69-104.31c55.94-94.54,114.01-187.83,168.89-282.97
	c22.32-38.69,71.06-40.29,93.14-0.82c48.05,85.92,100.08,169.62,150.69,254.09c11.16,18.63,25,35.7,32.42,56.48
	c-9.2,6.5-19.47,10.51-30.1,14.23c-43.27,15.15-86.7,29.64-128.66,48.6c-24.81,11.21-48.19,26.96-76.14,30.69
	c-4.81-20.41-19.26-35.71-28.62-53.72c-25.04-48.19-76.15-43.59-98.99-1.05c-21.16,39.41-46.04,76.83-69.27,115.12
	c-16.91-8.82-16.15-27.53-23.03-41.84C255.55,544.69,268.88,545.3,224.82,552.49z"/>
<path class="st1" d="M495.77,568.49c27.95-3.73,51.33-19.48,76.14-30.69c41.96-18.96,85.4-33.45,128.66-48.6
	c10.63-3.72,20.9-7.73,30.1-14.23c19.35-6.17,38.71-12.3,58.04-18.5c7.77-2.49,15.45-2.69,23.13,0.31
	c11.54,4.52,21.79,10.95,22.9,24.45c1.21,14.78-8.48,24.62-19.59,31.83c-9.79,6.35-20.83,11.1-31.85,15.09
	c-5.93,2.15-8.04,6.06-10.21,10.8c-10.81-7.66-20.93-3.96-31.67,0.97c-60.12,27.6-116.84,60.96-171.38,98.35
	c-9.96,6.83-18.97,11.55-16.07,25.33c-19.42-2.77-28.72,14.21-40.77,23.29c-42.46,32.01-84.29,65.17-123.67,100.85
	c-30.68,27.8-61.74,54.88-95.02,79.38c-35.8,26.35-71.53,16.47-102.67-5.4c-7.53-5.29-15.04-10.44-23.01-14.97
	c0.27-4.38,2.84-8.74-0.8-13.08c-19.82-23.64-35.34-50.07-49.69-77.22c-3.34-6.32-8.61-7.32-14.75-7.19
	c2.02-14.15-6.16-25.07-11.62-36.87c-18.66-40.35-15.39-51.89,20.41-77.86c37.55-27.24,76.85-52.07,112.43-82.02
	c44.06-7.2,30.73-7.81,51.04,34.5c6.87,14.31,6.11,33.02,23.02,41.84c5.46,37.66,35.4,50.59,64.79,27.92
	c33.37-25.73,67.92-49.71,103.79-71.86C476.77,579.16,490.05,580.27,495.77,568.49z"/>
<path class="st0" d="M553.99,663.59c-2.9-13.77,6.11-18.5,16.07-25.33c54.54-37.39,111.25-70.75,171.38-98.35
	c10.73-4.93,20.86-8.62,31.67-0.97c19.98,42.4,46.33,81.14,69.89,121.47c28.65,49.06,58.51,97.43,87.64,146.21
	c4.06,6.79,7.75,14,10.27,21.47c11.92,35.43-2.33,55.59-39.6,56.11c-55.65,0.78-111.3,0.97-166.94,2.05
	c-29.73,0.57-51.21-10.58-66.79-36.84C630.5,787,591.94,725.48,553.99,663.59z"/>
<path class="st0" d="M103.61,749.25c6.14-0.13,11.41,0.87,14.75,7.19c14.35,27.15,29.88,53.58,49.69,77.22
	c3.64,4.35,1.07,8.71,0.8,13.08c-10.57,15.83-20.11,32.94-40.49,38.19c-21.15,5.46-45.02-2.5-56.79-19.16
	c-13.91-19.7-11.01-40.2-0.44-59.99C81.37,786.63,92.74,768.07,103.61,749.25z"/>
</svg>
